<?xml version="1.0" encoding="utf-8"?>
<!-- Generator: Adobe Illustrator 28.0.0, SVG Export Plug-In . SVG Version: 6.00 Build 0)  -->
<svg version="1.1" id="Livello_1" xmlns="http://www.w3.org/2000/svg" xmlns:xlink="http://www.w3.org/1999/xlink" x="0px" y="0px"
	 viewBox="0 0 1190.55 841.89" style="enable-background:new 0 0 1190.55 841.89;" xml:space="preserve">
<style type="text/css">
	.st0{fill:#1C1C1B;}
</style>
<g>
	<g>
		<g>
			<polygon class="st0" points="531.53,501.85 531.53,510.34 520.5,510.34 520.5,501.85 518.34,501.85 518.34,520.96 520.5,520.96 
				520.5,512.36 531.53,512.36 531.53,520.96 533.68,520.96 533.68,501.85 			"/>
			<rect x="539.28" y="501.85" class="st0" width="2.16" height="19.11"/>
			<path class="st0" d="M544.92,511.46v-0.06c0-5.41,4.04-9.88,9.67-9.88c3.47,0,5.54,1.23,7.45,3.03l-1.47,1.58
				c-1.61-1.53-3.41-2.62-6.01-2.62c-4.23,0-7.4,3.44-7.4,7.84v0.05c0,4.42,3.2,7.89,7.4,7.89c2.62,0,4.34-1.01,6.17-2.76l1.42,1.39
				c-1.99,2.02-4.18,3.36-7.65,3.36C548.98,521.29,544.92,516.95,544.92,511.46"/>
			<path class="st0" d="M574.11,518.17l1.34-1.58c1.99,1.8,3.91,2.7,6.55,2.7c2.57,0,4.26-1.37,4.26-3.25v-0.05
				c0-1.78-0.96-2.79-4.97-3.63c-4.4-0.96-6.42-2.38-6.42-5.51v-0.06c0-3,2.65-5.21,6.28-5.21c2.79,0,4.78,0.79,6.72,2.35
				l-1.26,1.67c-1.77-1.45-3.55-2.08-5.52-2.08c-2.48,0-4.07,1.36-4.07,3.09v0.05c0,1.8,0.98,2.81,5.19,3.71
				c4.26,0.93,6.22,2.49,6.22,5.41v0.06c0,3.28-2.73,5.41-6.53,5.41C578.88,521.23,576.4,520.22,574.11,518.17"/>
			<path class="st0" d="M591.43,512.96v-11.11h2.16v10.98c0,4.12,2.18,6.44,5.84,6.44c3.52,0,5.76-2.13,5.76-6.31v-11.11h2.16v10.95
				c0,5.57-3.19,8.46-7.97,8.46C594.65,521.26,591.43,518.37,591.43,512.96"/>
			<polygon class="st0" points="625.77,501.85 625.77,517.16 613.73,501.85 611.71,501.85 611.71,520.96 613.81,520.96 
				613.81,505.28 626.15,520.96 627.87,520.96 627.87,501.85 			"/>
			<polygon class="st0" points="630.5,501.85 630.5,503.84 636.92,503.84 636.92,520.96 639.1,520.96 639.1,503.84 645.52,503.84 
				645.52,501.85 			"/>
			<polygon class="st0" points="660.99,501.85 660.99,520.96 663.15,520.96 663.15,512.63 673.5,512.63 673.5,510.67 663.15,510.67 
				663.15,503.84 674.73,503.84 674.73,501.85 			"/>
			<path class="st0" d="M677.33,512.96v-11.11h2.16v10.98c0,4.12,2.18,6.44,5.84,6.44c3.52,0,5.76-2.13,5.76-6.31v-11.11h2.16v10.95
				c0,5.57-3.19,8.46-7.97,8.46C680.56,521.26,677.33,518.37,677.33,512.96"/>
			<polygon class="st0" points="695.44,501.85 695.44,503.84 701.86,503.84 701.86,520.96 704.04,520.96 704.04,503.84 
				710.46,503.84 710.46,501.85 			"/>
			<path class="st0" d="M713.19,512.96v-11.11h2.16v10.98c0,4.12,2.18,6.44,5.84,6.44c3.52,0,5.76-2.13,5.76-6.31v-11.11h2.16v10.95
				c0,5.57-3.19,8.46-7.97,8.46C716.42,521.26,713.19,518.37,713.19,512.96"/>
			<path class="st0" d="M741.39,511.59c2.87,0,4.91-1.48,4.91-3.93v-0.05c0-2.35-1.8-3.77-4.89-3.77h-5.9v7.75H741.39z
				 M733.36,501.85h8.22c2.35,0,4.23,0.71,5.43,1.91c0.93,0.93,1.48,2.27,1.48,3.77v0.05c0,3.17-2.18,5.02-5.19,5.57l5.87,7.81
				h-2.65l-5.54-7.43h-5.46v7.43h-2.16V501.85z"/>
			<path class="st0" d="M760.17,504.22l4.34,9.75h-8.71L760.17,504.22z M759.18,501.71l-8.71,19.25h2.21l2.27-5.05h10.4l2.24,5.05
				h2.32l-8.71-19.25H759.18z"/>
		</g>
		<g>
			<path class="st0" d="M518.34,356.51v-23.09h8.89v22.86c0,6.58,3.29,9.99,8.72,9.99c5.42,0,8.72-3.29,8.72-9.7v-23.15h8.89v22.8
				c0,12.24-6.87,18.24-17.72,18.24C524.98,374.46,518.34,368.4,518.34,356.51"/>
			<polygon class="st0" points="561.63,333.42 569.82,333.42 588.76,358.3 588.76,333.42 597.53,333.42 597.53,373.83 
				589.97,373.83 570.4,348.14 570.4,373.83 561.63,373.83 			"/>
			<rect x="608.22" y="333.42" class="st0" width="8.89" height="40.41"/>
			<polygon class="st0" points="621.82,333.42 631.64,333.42 642.2,361.88 652.77,333.42 662.35,333.42 646.01,374.12 
				638.16,374.12 			"/>
			<polygon class="st0" points="667.07,333.42 697.55,333.42 697.55,341.33 675.9,341.33 675.9,349.53 694.95,349.53 694.95,357.43 
				675.9,357.43 675.9,365.92 697.84,365.92 697.84,373.83 667.07,373.83 			"/>
			<path class="st0" d="M724.22,353.05c4.33,0,6.81-2.31,6.81-5.72v-0.11c0-3.81-2.66-5.77-6.98-5.77h-8.83v11.61H724.22z
				 M706.33,333.42h18.47c5.14,0,9.12,1.44,11.78,4.1c2.25,2.25,3.46,5.42,3.46,9.24v0.11c0,6.52-3.52,10.62-8.66,12.53l9.87,14.43
				h-10.39l-8.66-12.93h-6.98v12.93h-8.89V333.42z"/>
			<path class="st0" d="M744.5,367.94l5.25-6.29c3.64,3,7.45,4.91,12.07,4.91c3.64,0,5.83-1.44,5.83-3.81v-0.11
				c0-2.25-1.38-3.41-8.14-5.14c-8.14-2.08-13.39-4.33-13.39-12.35v-0.11c0-7.33,5.89-12.18,14.14-12.18
				c5.89,0,10.91,1.85,15.01,5.14l-4.62,6.7c-3.58-2.48-7.1-3.98-10.51-3.98c-3.41,0-5.2,1.56-5.2,3.52v0.12
				c0,2.65,1.73,3.52,8.72,5.31c8.2,2.13,12.82,5.08,12.82,12.12v0.12c0,8.02-6.12,12.53-14.84,12.53
				C755.52,374.41,749.34,372.27,744.5,367.94"/>
			<rect x="785.19" y="333.42" class="st0" width="8.89" height="40.41"/>
			<polygon class="st0" points="811.68,341.62 799.38,341.62 799.38,333.42 832.86,333.42 832.86,341.62 820.57,341.62 
				820.57,373.83 811.68,373.83 			"/>
			<path class="st0" d="M855.77,356.91l-5.37-13.1l-5.37,13.1H855.77z M854.09,329.67h-6.7l-7.85-5.77l7.56-3.29L854.09,329.67z
				 M846.42,333.13h8.2l17.32,40.7h-9.29l-3.69-9.06h-17.09l-3.69,9.06h-9.06L846.42,333.13z"/>
		</g>
		<g>
			<path class="st0" d="M534.1,418.01c7.27,0,12.18-4.91,12.18-12.06v-0.12c0-7.16-4.91-12.18-12.18-12.18h-6.87v24.36H534.1z
				 M518.34,385.63h15.76c12.7,0,21.47,8.72,21.47,20.09v0.11c0,11.37-8.77,20.21-21.47,20.21h-15.76V385.63z"/>
			<polygon class="st0" points="560.74,385.63 591.22,385.63 591.22,393.54 569.57,393.54 569.57,401.74 588.62,401.74 
				588.62,409.64 569.57,409.64 569.57,418.13 591.51,418.13 591.51,426.04 560.74,426.04 			"/>
			<path class="st0" d="M596.56,405.95v-0.12c0-11.49,8.95-20.9,21.19-20.9c7.27,0,11.66,1.96,15.87,5.54l-5.6,6.75
				c-3.12-2.6-5.89-4.1-10.56-4.1c-6.47,0-11.6,5.71-11.6,12.58v0.11c0,7.39,5.08,12.82,12.24,12.82c3.23,0,6.12-0.81,8.37-2.42
				v-5.77h-8.95v-7.68h17.55v17.55c-4.16,3.52-9.87,6.41-17.26,6.41C605.22,426.73,596.56,417.9,596.56,405.95"/>
			<polygon class="st0" points="642.65,385.63 651.54,385.63 651.54,417.96 671.68,417.96 671.68,426.04 642.65,426.04 			"/>
			<rect x="676.45" y="385.63" class="st0" width="8.89" height="40.41"/>
			<path class="st0" d="M706.17,420.15l5.25-6.29c3.64,3,7.45,4.91,12.07,4.91c3.64,0,5.83-1.44,5.83-3.81v-0.11
				c0-2.25-1.38-3.41-8.14-5.14c-8.14-2.08-13.39-4.33-13.39-12.35v-0.11c0-7.33,5.89-12.18,14.14-12.18
				c5.89,0,10.91,1.85,15.01,5.14l-4.62,6.7c-3.58-2.48-7.1-3.98-10.51-3.98c-3.41,0-5.2,1.56-5.2,3.52v0.12
				c0,2.65,1.73,3.52,8.72,5.31c8.2,2.13,12.82,5.08,12.82,12.12v0.12c0,8.02-6.12,12.53-14.84,12.53
				C717.19,426.62,711.02,424.48,706.17,420.15"/>
			<polygon class="st0" points="752.51,393.83 740.21,393.83 740.21,385.63 773.7,385.63 773.7,393.83 761.4,393.83 761.4,426.04 
				752.51,426.04 			"/>
			<path class="st0" d="M778.53,408.72v-23.09h8.89v22.86c0,6.58,3.29,9.99,8.72,9.99c5.43,0,8.72-3.29,8.72-9.7v-23.15h8.89v22.8
				c0,12.24-6.87,18.24-17.72,18.24C785.17,426.67,778.53,420.61,778.53,408.72"/>
			<path class="st0" d="M836.36,418.01c7.27,0,12.18-4.91,12.18-12.06v-0.12c0-7.16-4.91-12.18-12.18-12.18h-6.87v24.36H836.36z
				 M820.6,385.63h15.76c12.7,0,21.47,8.72,21.47,20.09v0.11c0,11.37-8.77,20.21-21.47,20.21H820.6V385.63z"/>
			<rect x="863.32" y="385.63" class="st0" width="8.89" height="40.41"/>
		</g>
		<g>
			<path class="st0" d="M534.1,470.21c7.27,0,12.18-4.91,12.18-12.06v-0.12c0-7.16-4.91-12.18-12.18-12.18h-6.87v24.36H534.1z
				 M518.34,437.83h15.76c12.7,0,21.47,8.72,21.47,20.09v0.11c0,11.37-8.77,20.21-21.47,20.21h-15.76V437.83z"/>
			<rect x="560.74" y="437.83" class="st0" width="8.89" height="40.41"/>
			<path class="st0" d="M591.87,460.92v-23.09h8.89v22.86c0,6.58,3.29,9.99,8.72,9.99s8.72-3.29,8.72-9.7v-23.15h8.89v22.8
				c0,12.24-6.87,18.24-17.72,18.24C598.51,478.88,591.87,472.81,591.87,460.92"/>
			<path class="st0" d="M650.32,470.21c7.27,0,12.18-4.91,12.18-12.06v-0.12c0-7.16-4.91-12.18-12.18-12.18h-6.87v24.36H650.32z
				 M634.56,437.83h15.76c12.7,0,21.47,8.72,21.47,20.09v0.11c0,11.37-8.77,20.21-21.47,20.21h-15.76V437.83z"/>
			<rect x="677.67" y="437.83" class="st0" width="8.89" height="40.41"/>
			<polygon class="st0" points="694.67,437.83 702.86,437.83 721.8,462.71 721.8,437.83 730.57,437.83 730.57,478.24 723.01,478.24 
				703.44,452.55 703.44,478.24 694.67,478.24 			"/>
			<polygon class="st0" points="739.15,437.83 769.63,437.83 769.63,445.74 747.98,445.74 747.98,453.94 767.03,453.94 
				767.03,461.85 747.98,461.85 747.98,470.33 769.91,470.33 769.91,478.24 739.15,478.24 			"/>
		</g>
	</g>
	<g>
		<path class="st0" d="M422.73,333.58c0.42,1.3-1.12,2.13-1.92,2.68c-1.42-0.86-2.84-2.72-4.65-1.53c-0.6,0.24-0.19,0.87-0.3,1.32
			c1.6,1.59,4.56,1.88,5.03,4.17c0.44,2.12-0.31,4.05-2.19,4.99c-3.7,1.98-5.72-3.46-9.57-1.11c0.39-1.36,1.48-2.44,2.22-3.67
			c2.44,0.35,3.12,3.22,5.98,2.5c0.69-0.75,1.93-1.67,0.94-2.65c-1.96-1.58-5.92-1.68-5.71-5.14c-0.59-1.39,0.82-2,1.24-2.99
			C416.95,331.14,419.55,333.6,422.73,333.58"/>
		<path class="st0" d="M387.82,333.05c1.86-0.65,4.4,1.16,6.24-0.47c0.57,1.44-0.87,2.1-0.91,3.31c-1.69-0.66-3.88-2.09-5.61-0.53
			c-0.53,1.22,0.95,1.76,1.68,1.93c2.61,0.05,5.59,0.59,6.66,3.15c0.67,1.99-0.79,3.43-2.21,4.32c-2.68,1.87-5.5-2.18-7.55,1.16
			l-0.66,0.01c-0.31-1.63,0.38-2.87,0.56-4.3c2.14,0.34,4.59,2.97,6.6,0.51c0.15-0.95,0.1-1.17-0.37-1.96
			c-2.47-1.87-7.65,0.27-7.99-4.1c-0.46-1.38,0.5-2.49,1.57-3C386.59,333.27,387.41,332.67,387.82,333.05"/>
		<path class="st0" d="M406.35,338.22c-1.95-0.03-1.63,3.11-3.89,2.39c-0.09-1.93-4.34-2.96-1.75-4.24l2.57-3.02
			C404.66,334.53,406.09,336.26,406.35,338.22"/>
		<path class="st0" d="M437.66,339.51c0.73,0.65,1.98,1.19,1.05,2.28l-1.61,1.67c-1.32-0.59-1.63-3.09-3.67-2.55
			c-1.63,2.71-3.89,5.58-2.76,8.96c-2.38,0.38-3.79-1.73-5.98-1.84c0.05-1.68,2.71-0.73,2.9-2.7c0.91-2.19,2.86-4.37,2.48-6.64
			c-1.27-1.4-3.12-1.3-4.95-1.2c-0.43-1.21,0.75-1.81,1.25-2.66C430.48,335.5,433.8,338.21,437.66,339.51"/>
		<path class="st0" d="M366.33,343.74l0.02,0.98c-1.62-0.4-2.88,0.67-3.58,1.73c0.88,2.71,2.73,5.89,5.74,6.78l0.01,0.67
			c-1.73,0.91-3.17,2.52-5.2,2.75c1.16-3.44-1.52-6.01-3.48-8.49c-2.74-0.91-2.94,5.31-4.92,0.78l-0.02-1l8.75-5.79
			C365.23,341.65,365.61,342.76,366.33,343.74"/>
		<path class="st0" d="M374.56,343.55l-0.32,0.33c-0.7-0.39-0.77-1.08-0.38-1.64C374.09,342.39,374.81,342.9,374.56,343.55
			 M382.87,347.31c-1.24-1.21-3.55-2.64-4.38-4.17c-2-1.97-4.21-5.59-7.03-5.45c-0.43,3.32-0.34,7.24,0.24,10.53
			c-0.19,1.26-0.84,2.34-0.91,3.65c1.57-0.11,2.97-0.63,4.25-1.42c0.23-0.95-0.91-1.29-1.37-1.93c0-0.71-0.11-1.45,0.28-1.98
			c1.21-0.1,1.8-1.58,3.28-1.07c1.19,0.77,1.53,1.91,1.38,3.27C380.03,348.23,381.68,348.31,382.87,347.31"/>
		<path class="st0" d="M445.01,344.28c-3.22,1.22-5.12,4.66-5.09,8.01c0.52,1.3,1.88,1.9,3.34,1.56c1.98-2.25,3.93-4.51,4.43-7.34
			l0.65-0.67c1.12,1.18,3.41,1.56,3.37,3.55c-4.46,0.67-4.19,7.17-9.06,7.11c-2.27-0.29-4.77-1.49-5.68-3.82
			c0.23-4.15,2.96-7.32,3.7-11.28C442.37,341.71,443.92,343.15,445.01,344.28"/>
		<path class="st0" d="M351.71,352.29c1,2.09,2.37,4.04,4.07,5.83c0.77,1.81,2.67,0.68,3.67,1.9c-1.2,0.81-2.2,3.43-4.22,3.05
			c-0.77-3.52-3.82-6.33-6.46-8.74l-0.66,0.01C348.47,353.04,351.01,349.94,351.71,352.29"/>
		<path class="st0" d="M346.96,360.62c-2.17,0.53-4.03,1.74-4.52,4.06c1.04,1.63,2.16-0.34,3.28-0.4c0.9-1.36,2.2-1.78,3.58-2.06
			c1.29,0.44,3.15,0.14,3.66,1.9c0.57,2.2-0.82,3.95-2.52,4.98c-1.13,0.34-2.09,1.02-2.91,2.04c-0.19,0.92-0.18,1.4,0.05,2.3
			c-0.32-0.09-0.46,0.16-0.65,0.34c-0.93-1.15-1.85-2.3-1.74-3.9c1.53-0.79,3.31-2.35,3.85-4.04c-0.49-1.09-1.97-0.66-2.64-0.27
			c-1.3,1.68-3.05,2.37-5.22,2.09c-1.16-0.47-1.84-1.74-2.03-2.92c-0.46-1.89,1.76-3.03,2.87-4.02c2.75,0.29,1.58-5.3,4.22-2.4
			L346.96,360.62z"/>
		<path class="st0" d="M457.57,361.11c-0.72,1.18-1.86,1.34-2.92,1.72c-1.27,0.07-1.86-1.62-3-1.91c0.44-2.2,2.84-3.92,4.49-5.37
			c0.94-0.17,1.68,0.92,2,1.61C458.94,358.45,458.27,359.99,457.57,361.11 M455.7,351.28l-1.31,0.03c-1.63,3.11-4.1,7.6-8.05,8.09
			l5.05,5.15c1.92,1.15,4.85,1.81,6.91,0.5c2.38-1.35,3.38-3.82,3.49-6.34C460.94,355.72,458.33,353.21,455.7,351.28"/>
		<path class="st0" d="M468.87,366.13c-3.91,1.1-8.65,2.95-10.05,7.14l-0.32,0.34c-1.37-1.47-2.39-3.1-3.07-4.87
			c4.43,0.15,7.86-3.22,10.05-6.8C467.24,362.47,467.74,364.73,468.87,366.13"/>
		<path class="st0" d="M335.55,380.3c-1.09-0.25-3.34-0.48-2.68-2.25c1.26-1.15,2.12-4.41,4.23-2.4
			C337.53,377.58,336.64,378.98,335.55,380.3 M341.72,376.21c-1.77-0.07-1.93-2.01-2.38-3.24c-1.42-0.45-2.5-1.8-4.31-1.23
			c-3.41,2.28-4.54,6.6-5.69,10.33c4.19,0.21,8.28,1.38,10.96,4.69c1.12-1.35,1.75-2.9,1.87-4.64c-1.56-0.04-2.43,0.52-3.64-0.59
			c0.17-1.35,0.7-2.57,1.57-3.65c1.82-0.91,2.69,1.35,3.66,1.9c1.04-1.22,1.58-2.63,2.22-4.01
			C344.72,375.38,343.36,376.59,341.72,376.21"/>
		<path class="st0" d="M471.81,379.57c-1.42,1.34-3.69,1.72-5.57,1.11c-1.4-0.72-1.22-2.14-1.71-3.25c0.5-1.69,1.09-3.22,2.87-4.02
			c1.87-0.22,3.89-0.07,4.65,1.87C472.48,376.5,472.83,378.5,471.81,379.57 M472.97,372.62c-2.53-2.8-7.56-2.33-9.86,0.55
			c-1.16,2.03-1.8,5.08-0.49,7.25c1.43,2.15,3.64,3.82,6.33,3.47c2.18-0.36,4.44-1.86,5.53-3.41
			C474.95,377.85,474.93,374.6,472.97,372.62"/>
		<path class="st0" d="M331.09,387.31c-2.58,1.43-3.37,4.13-3.79,6.67c0.79,0.93,1.7,1.57,2.99,1.26c1.42-1.09-0.04-2.56,0.24-3.96
			c1.22,0.3,2.56,0.26,3.64,0.9c0.77,1.55-3.04,2.52-0.25,3.63c2.39,0.43,2.49-2.32,3.22-3.7c0.51-1.46-0.97-2.06-1.07-3.26
			c1.49-0.3,2.57,0.47,3.66,1.24c-0.57,3.11-2.56,5.69-2.77,8.94c-1.26,1.05-2.11-1.06-3.32-1.24c-3.05,0.33-5.55-1.8-8.57-0.48
			c-0.5-0.54-0.53-1.73-0.05-2.3c0.92-2.98,1.84-5.96,2.76-8.94C329.26,385.51,330,386.85,331.09,387.31"/>
		<path class="st0" d="M475.74,393.3c-1.35-0.23-1.23-1.69-1.71-2.6c0.81-1.71,3.52-1.09,2.98,0.92
			C477.07,392.6,476.58,393.02,475.74,393.3 M478.17,384.36l-0.98,0.02c-1.56,3.47-5.5,2.88-8.48,3.81
			c-0.91-0.19-1.39-0.18-2.3,0.05l0.76,3.94c1.28,1.96,1.87-1.4,3.26-1.07c0.78,0.57,1.21,1.3,1.03,2.28
			c-0.88,1.12-1.94,1.88-3.24,2.05c-0.01,1.74-0.03,3.77,1.41,4.58c0.21-0.56,0.91-0.91,0.63-1.66c0.68-1.27,1.92-2.62,3.56-2.38
			c1.07,1.68,3.52,0.85,4.95,0.54C483.03,393.27,478.86,388.2,478.17,384.36"/>
		<path class="st0" d="M335.87,409.26c0.47,1.17-0.55,2.33-1.6,2.34c-3.46,1.73-7.59,1.98-10.42,5.17
			c-0.41-1.43-0.85-3.69,0.22-4.94c2.85,1.26,5.02-0.93,7.2-2.14c-0.82-2.17-3.57-2.33-5.34-3.5l-2.3,0.38
			c0.33-1.75-0.17-3.83,0.88-5.29C327.61,404.95,331.89,407.11,335.87,409.26"/>
		<path class="st0" d="M481.83,400.73c0.64,1.54,0.31,3.51,0.45,5.26c-2.11-1.35-5.1-1.49-7.59-0.81c-0.79,0.22-1.29,1.12-1.93,1.68
			c-0.35,1.76,0.54,3.26,2.05,3.91c2.52-0.01,5.03,0,6.88-1.48l0.98-0.02c-1.06,1.79,0.85,3.5-0.21,5.27
			c-1.39,0.48-1.89-1.31-3-1.57c-3.28-0.2-7.43,1.1-9.26-2.1c-1.32-1.96-0.66-4.79,0.51-6.6c2.34-3.13,7.62-0.88,10.45-3.52
			L481.83,400.73z"/>
		<path class="st0" d="M473.65,417.71c2.57,0.91,5.07,3.05,7.95,2.13c0.25,0.91,1.01,1.63,0.39,2.62c-1.95,1.47-6.6,1.02-5.82,4.4
			c1.6,2.37,6,3.47,3.44,6.84c-0.19,0.42-0.61,0.33-0.97,0.35l-1.35-1.28c-3.28,0.17-7.03-1.61-9.87,0.55
			c-0.44-0.1-1.08,0.29-1.32-0.3c0.57-1.51,0.28-4.21,2.21-4.33c0.69,2.25,3.45,0.65,4.97,1.54c0.44-0.58,1.28-0.23,1.61-1.03
			c-0.78-1.66-2.26-3.02-3.39-4.54c1.36-1.25,3.34-1.13,4.55-2.73c-1.31-1.08-2.75-1.82-4.33-2.21c-0.76,0.24-1.31,0.96-2.29,0.72
			l0.54-4.95C471.62,415.17,472.3,417.31,473.65,417.71"/>
		<path class="st0" d="M336.18,423.41c-2.78-2.75-6.11,0.06-9.22,0.21c-0.64,0.78-1.27,1.86-1.91,2.35
			c-0.75-1.47-1.52-3.92-0.8-5.92c0.81,0.07,1.2,1.21,2.01,1.28c3.17-0.74,6.98,0.01,9.5-2.19
			C336.35,420.36,336.11,422.37,336.18,423.41"/>
		<path class="st0" d="M437.73,399.58c0.58-0.42,0.72-0.99,0.62-1.66l-0.67-0.64c-0.88,1.03-1.41-0.98-2.33-0.94l-0.63,1.01
			c-1.42,10.45-0.85,21.27,1.68,31.23c-0.06-0.24-1.16-2.82-1.73-4.24c-1.72-8.4-1-17.89-5.17-25.23c-0.48-0.12-0.65,0.46-0.98,0.69
			l-0.78,8.9l-1.22,19.45l0.18,8.22c-1.61-3.29-1.26-7.43-1.89-11.14c0.26-7.92,0.5-16.64-2.18-23.66c-0.44,0.12-1.09-0.25-1.3,0.36
			c-0.14-1.31-1.27-2.6-0.43-3.93c1.72-1.57,0.28-6.49,3.51-5.34c0.33-0.61,1.09-0.25,1.64-0.36c0.82,1.87-0.67,3.67-1.53,5.3
			c-0.72,2.35,0.08,5.68,0.84,8.21c1,0.1,0.3-1.03,0.97-1.34c-1.14-1.61,0.69-3.3-0.45-4.93c0.81-3.19,3.61-6.03,2.42-9.59
			c0.23-0.61,0.88-0.25,1.31-0.36c0.38,1.69-0.7,3.62,0.77,5.25c2.22,1.05,1.16,4.12,2.44,5.87c0.11-2.43,1.19-6.11-1.16-7.87
			c-0.15-2.03,1.12-4.74-0.81-6.24c-0.86-0.25-1.3,0.47-1.95,0.71c-0.61-0.23-0.25-0.88-0.36-1.31c1.07-0.97,2.28-1.66,3.91-1.4
			c-1.05,5.11,5.23,6.12,4.53,11.09l0.67,0.64c0.12-1.77-0.26-4.14-1.11-5.9c-2.79-1.75-1.04-6.39-2.85-8.28
			c-0.18-0.13-0.35-0.26-0.51-0.4c-0.5-0.29-1.18-0.45-2.11-0.42c-0.22,0.35-0.78,0.53-0.65,1.01c-1.83-0.53,0.58-1.61,0.27-2.64
			c0.34-0.45,0.84-0.52,1.31-0.7c-0.03,1.32,0.47,2.13,1.18,2.74c0.19,0.11,0.36,0.25,0.51,0.4c1.43,1.01,3.26,1.66,3.41,3.99
			l1,0.97l0.32-0.33c-0.73-2.3-1.48-4.89-3.11-6.52c-1.66-2.04-1.91-6.46-5.72-5.79c-0.74,0.56-1.38,1.57-0.6,2.32l0.33,0.32
			l-0.64,0.67c-3.87-1.93-0.22-9.23-6.44-8.08l-0.64,0.67l0.33,0.32l-0.32,0.33l-0.33-0.32c-1.05,0.45-0.48,1.52-0.6,2.32
			c0.4,0.58,0.99,0.72,1.65,0.62l1.29-1.67l1,0.96c-0.52,2.17-4.22,1.1-3.53,4.03c-1.62-1.6-3.91-4.31-2.13-6.87
			c0.79-1.35,1.08-2.9,0.88-4.63c0.58,0.97,0.17,2.67,1.72,2.92c1.33-0.6,3.15-1.04,4.6-0.43c2.29,1.98,5.77,2.94,8.59,1.46
			c1.34,0.81,0.27,2.11-0.26,2.97l-1.61,1.69c4.35,3.18,6.03,8.13,7.21,13c1.68,2.41,3.08,5.52,6.07,6.77
			c-3.23,0.24-5.32-2.51-7.98-3.77c-1.96,3.21,1.01,5.9,1.52,8.85c0,4.91,2.94,8.53,2.93,13.44l1.75,4.23
			C440.2,411.74,439.95,405.24,437.73,399.58 M437.63,409.79l-0.97,0.35c-0.47-1.98,0.13-3.19-0.12-5.26
			C437.1,406.42,437.89,407.86,437.63,409.79 M419.77,405.9c0.64,1.72,0.27,2.65,0.43,4.6C419.09,409.68,419.41,407.25,419.77,405.9
			 M419.04,402.63c-0.01-0.81-0.35-1.45-1.04-1.95c-0.69,0.1-1.08,0.91-1.61,1.35c-0.88-1.54-1.06-3.39-2.31-4.77
			c-0.11,0.04-0.23,0.08-0.34,0.13c-1.83,2.06-1.87,6.79-5.55,6.48c-0.94-0.72-1.88-1.85-1.05-2.94c1.68-2.25,4.52,0.33,5.53-2.76
			c0.26-0.36,0.64-0.6,1.06-0.78c0.08-0.08,0.15-0.17,0.24-0.24c0.03,0.04,0.07,0.07,0.1,0.11c1.45-0.52,3.2-0.61,2.8-2.81
			c-0.47-0.58-1.33-0.18-1.98-0.28c-0.09-0.78,0.78-0.66,1.31-0.68c1.13,0.92,2.37,1.56,3.97,1.23c0.25,2.07-1.58,3.75-0.86,5.61
			L419.04,402.63z M412.62,424.82c-1.09,0.74-2.6,1.49-3.94,0.76c-1-1.29-2.4-1.51-2.37-3.25c1.62-2.56,4.59,0.78,6.21-1.78
			C414.04,421.74,412.59,423.4,412.62,424.82 M410.89,406.43l0.67-0.01c0.42,1.96-0.36,3.45-1.87,4.65c-1.02-0.61-1.84-1-2.03-2.26
			C407.08,406.24,410.1,407.87,410.89,406.43 M406.09,412.13c1.81,0.58,4.2,2.87,5.93,0.54c0.37,1.86-0.24,4.14-1.85,5.63
			c-1.81,0.25-3.47-1.33-4.01-2.87C405.64,414.55,405.6,413.03,406.09,412.13 M402.44,411.23c-1.28-1.92-3.34-3.92-2.12-6.54
			c2.02,2.42,7.2-2.63,5.33,2.84C405.15,408.99,404.39,411.2,402.44,411.23 M402.94,448.41c0.45,0.38,0.45,0.97,1.01,1.3
			c0.79,0.06,1.35-0.37,1.96-0.7c1.69,1.6-2.38,3.83,1.11,4.91c1.93,0.11,2.96-1.87,4.89-1.76c0.18,1.17-0.54,2.27-1.58,2.67
			c-1.52-0.16-3.12,0.17-3.59,1.73c-0.11,1.7,1.41,2.39,2.7,2.9c0.74,0.01,1.57-0.2,1.99,0.61c-2.76,1.25-4.89-3.3-7.6-1.14
			c-0.76,2.68,2.41,5.74-1.84,6.29c-3.69-0.51,0.48-7.24-4.07-5.5c-1.04,0.72-2.25,2-3.59,1.06l-0.35-0.32
			c1.67-0.78,3.68-1.43,4.54-3.39c-0.36-0.7-0.61-1.44-1.35-1.95c-1.22-0.53-2.82-0.05-3.66-1.57c1.61,1.54,5.14-0.39,5.65,2.51
			c-0.59,0.25-0.19,0.89-0.3,1.33c0.42,0.58,0.99,0.72,1.66,0.62c0.89,0.89-0.5,3.93,2.04,2.91c0.82-1.43,0.58-4.42,3.2-4.01
			c0.32-0.67,1.06-1.61,0.28-2.31c-2.3-0.7-0.57-3.17-2.07-4.24c-1.49,0.2-3.32-0.4-4.25,1.09c-0.95-0.11-1.62-0.93-2.34-1.6
			l-0.01-0.65c1.57-0.3,3.04,2.8,4.28,0.23c-0.75-2.97,2.33-4.46,1.15-7.6l0.32-0.33l-0.33-0.32c0.66-5.07,0.82-10.32,1.97-15.19
			l0.67,0.64C402.11,432.93,404.27,441.35,402.94,448.41 M399.98,418.85c0.09-1.48,0.78-3.02,2.22-3.68
			c2.11-0.29,2.03,2.16,3.03,3.23c-0.5,1.36-1.34,2.59-2.55,3.67C400.82,422.01,400.88,419.93,399.98,418.85 M398.84,426.78
			l0.67,0.64c0.57,3.15,1.22,6.25,1.52,9.52l-0.67-0.64L398.84,426.78z M397.14,424.18c-1.27,1.04-2.64,2.33-4.26,1.08
			c-1.71-0.59-1.01-3.25-0.76-4.59c1.43-0.99,2.37,2.69,4.3,0.9l1.29-1.02C400.07,421.25,397.63,423.09,397.14,424.18 M391.6,397.64
			c-1.62,1.17-0.74,3.3-1.87,4.65c-0.76-0.36-1.07-2.38-2.67-1.58c-0.98,2.78-0.47,6.13-1.44,8.91c-0.63-0.98-0.28-2.41-0.42-3.61
			l0.97-1.02c-3.29-0.43-0.34-7.19-4.04-3.85c-0.16,2.31-0.82,4.83-0.5,6.92l-1.56,18.81l-0.32,0.33c0.44-9.56-1.8-19.11-1.31-29.27
			l-0.68-1.29c-1.66,1.14-2.63,2.61-3.21,4.25c0,0.04,0,0.07,0,0.11l-0.06,0.06c-1.31,3.92-0.49,8.81-1.62,12.81
			c-1.85,5.52-0.72,12.21-5.56,16.58l-0.65,0.01c6.06-8.59,3.66-20.48,6.24-30.43c-1.47-1.39,1.49-4.37-1.42-4.24
			c-3.39,6.12-5.83,12.6-9.46,18.64c-0.25-1.42,1.83-2.75,2.21-4.33c0.35-6.24,2.65-11.71,4.88-17.23
			c-0.14-0.58,0.31-1.72-0.69-1.62c-2.51,0.45-4.42,2.28-7.2,2.14l-1.31,0.03c2.09-1.91,5.16-2.89,7.1-5.77
			c3.6-4.25,2.95-10.14,7.6-13.99c0.29-3.29-5.52-0.04-4.04-3.87c3.48,3.16,7.23-0.59,10.84-0.9c0.87-1.13,0.8-2.63,1.9-3.66
			c0.76,2.88,3.52,7.44-0.1,10.21c-0.96,1.58-2.23-0.18-3.62,0.41c-1.32-0.26-1.68-1.94-1.05-2.94c0.3,0.09,0.46-0.16,0.65-0.34
			c0.58,0.43,0.23,1.28,1.03,1.61c0.82,0.22,1.44-0.33,1.62-1.02c0.51-1.35-0.84-2.15-1.7-2.6c-1.73-0.39-3.14,0.62-3.92,1.73
			c-0.6,1.25-0.09,3.24-0.23,4.29c-1.52,0.25-3.81,0.7-4.55,2.73c-0.01,2.48-2.14,4.16-2.16,6.64c-0.41,0.99-1.82,2.01-1.24,2.99
			c2.7-1.09,2.37-4.42,5.13-6.04c0-0.38-0.11-0.79,0.31-1c1.43-0.35,2.47,1.75,4,1.89c-0.05,0.51,0.56,0.73,0.36,1.3l-0.32,0.35
			c-0.63-0.99-1.61-1.04-2.65-0.94c-1.44,3.77-4.65,6.87-6.02,10.67l0.33,0.32c1.42-3.04,4.7-4.51,5.76-7.7
			c2.28,1.26,4.19-1.16,6.24-0.47c-0.1,0.56,0.31,1.3-0.29,1.66c-0.73-0.34-1.38-0.84-2.32-0.6c-2.66,1.63-2.55,4.92-4.78,7.01
			c-0.29,1.87-0.57,3.75-0.86,5.63c0.33,0.21,0.52,0.77,1,0.63l0.58-0.61c0.02-0.06,0.04-0.11,0.06-0.17
			c-0.08-3.35,1.86-5.9,2.76-8.85c1.62-2.29,4.88,0.63,6.55-1.8c0.41,0.29,1.36,0.06,1,0.97c-0.6,0.91-1.19-0.28-1.96,0.04
			c-4.11,2.64-2.73,7.97-3.35,12.26l0.67,0.64c0.85-1.8,0.77-3.95,1.85-5.63c0.03-1.44-1.01-3.13,0.23-4.29
			c1.45-0.28,2.65,0.73,3.95-0.09c-0.07,1.87-1.13,3.75-0.2,5.6c0.91-0.8,0.82-2,1.24-2.99c1.41-1.13,3.31-1.77,4.21-3.38
			c0.37,0,0.78-0.11,0.99,0.31c-0.32,0.55-1.33,0.84-0.95,1.67c2.01,1.38,2.68,6.79,6.01,4.14c0.62,0.88,1.75,2.37,0.4,3.29
			c-1.38,2.08-3.48,0.27-4.3-1.23C392.64,400.4,392.99,398.64,391.6,397.64 M391.46,405.88l-0.01-0.67l0.31-0.99L391.46,405.88z
			 M389.19,392.76c-0.23,0.6-0.88,0.23-1.3,0.36l-0.35-0.32C388.03,392.61,388.76,392.11,389.19,392.76 M395.75,406.11
			c0.02,0.2,0,0.33-0.05,0.43c0.06,0.95,1.56,0.16,2.04,0.83c0.21,1.72,0.02,3.29-1.54,4.32c-0.84,0.38-1.11-0.63-1.67-0.95
			c-0.63-0.99-0.27-2.41-0.41-3.62c0.29-0.65,1.33-0.07,1.58-0.59C395.69,406.43,395.71,406.28,395.75,406.11 M393.62,414.06
			c2.21,1.25,3.69-0.99,5.56-1.45l0.67,0.65c-0.22,2.18-2.05,4.05-3.82,5.35c-1.88-0.07-1.81-2.15-2.71-3.24
			C393.41,414.94,393.02,414.31,393.62,414.06 M406.4,396.65c-1.04,1.93-1.96,4.76-4.16,5.36c-0.93-1.69-2.86-3.38-1.77-5.55
			C402.8,400.13,405.2,393.28,406.4,396.65 M395.08,391.31c1.39-1.64,3.73-1.14,5.57-1.77c1.35,0.6,1.25,2.71,3.01,2.24l1.58-2.67
			c2.87,2.13,7.59-2.19,7.65,3.46c-0.54,1.71-1.22,3.38-2.86,4.66c-2.38-1.43-2.27-4.56-3.44-6.83c-2.61,0.12-1.68,3.92-4.19,4.36
			c-1.12-1.21-1.9-2.59-2.07-4.22c-1.51,0.65-1.04,2.66-1.55,3.98c-1.15,0.87-1.48,2.93-3.23,2.71
			C393.91,395.49,394.25,393.31,395.08,391.31 M401.03,377.36c0.81-0.6,2.06-0.16,2.6-1.38c0.17-3.17-2.9-4.6-5.08-6.14
			c-0.37,0-0.78,0.09-0.99-0.32c3.27-0.33,5.38,4.4,8.6,2.11c0.9-1.49-2.01-2.45-0.07-3.29c1.98-0.11,3.29,1.05,3.68,2.88
			c0.05,4.56-4.81,11.43,1.31,14.13l0.33,0.32c-1.52,0.08-1.96,2.63-3.92,1.74c-0.95-0.65-1.54-2.25-3-1.58l-1.27,1.68
			c-1.04-2.6-3.69-1.11-5.27-0.22C401.04,385.07,401.47,381.24,401.03,377.36 M425.31,388.66c0.08,0.83-0.85,0.67-1.29,1.02
			C423.63,388.81,424.7,388.61,425.31,388.66 M440.59,394.9c1.71-1.3,2.89,0.87,4.62,0.55c0.48-0.4,1.49-0.57,1.98-0.04
			c0.33-0.61,1.09-0.24,1.63-0.36c0.93-0.07,0.86-1.12,1.29-1.68c-10.58-1.35-7.29-13.48-14.24-18.77c0.43-2.08,1.75-3.81,1.17-6.29
			c-0.76-0.8-1.11-2.67-2.68-2.25c-0.57,0.95-0.92,1.72-1.93,2.35c-2.49,0.6-3.92-1.6-5.97-2.17c-4.29,1.03-2.81-3.93-6.37-4.78
			c-1.49-0.26-4.32-0.97-4.9,1.09l2.35,2.58c1.1,2.48-0.27,4.82-1.16,6.94c-0.03,2.26,1.27,3.94,2.76,5.53
			c0.56,0.91,0.13,3.13,2.04,2.59c1.9-0.84,1.97-2.68,3.19-4.35c0.58-0.03,0.9,0.63,1.34,0.97c-0.05,2.39,3.25,3.32,2.1,6.2
			c-0.99,3.22-4.46,3.48-6.45,5.74c-2.44-0.26-3.83,1.81-5.88,2.44c-1.61-0.42-1.59-2.16-2.37-3.24c0.32-0.23,0.49-0.8,0.97-0.68
			c0.87-0.31,1.11-0.67,0.94-1.67c-0.95-1.34-2.3-1.61-3.66-1.9c-4.3-3.68,0.74-8.37,0.37-12.85c-0.4-5.5-7.19-3.42-10.96-4.69
			c-2.39,2.85-8.24-0.14-9.13,4.16c0.78,0.5-0.22,2.37,1.37,1.95c-0.15-0.48,0.43-0.68,0.63-1.01c2.61-0.56,5.73,0.39,7.31,2.8
			c-2.15,0.87-4.36-2.31-6.59-0.18c0.93,1.1,2.59,0.33,3.34,1.9c2.76,1.29,1.55,4.74,1.46,6.88c-0.89,2.99-4.09,3.38-6.14,5.08
			c-0.31,0.89,0.56,1.26,0.7,1.95c-0.91,2.57-3.49,1.24-5.25,0.78c-1.68-1.4-5.15-1.12-5.03-4.17c-0.88-0.04-1.21-1.5-2.33-0.93
			c-0.45-0.54-1.24-0.93-1.36-1.62c-1.47-1-2.67-2.99-1.75-4.9c2.41-3,3.07,2.59,5.96,1.52c-0.35-2.83,1.45-4.82,2.8-6.98
			c0.91-2.68-0.41-5.19-1.15-7.55c0.1-1.77,2.26-2.14,2.22-3.67c-3.31-1.56-6.99,1.23-7.14,4.43c-2.08,1.81-4.79,2.14-7.52,2.47
			c-1.36-0.39-2.03-2.54-3.67-2.22c-0.52,0.92-1.26,1.74-0.93,2.98c-0.46,2.08,0.71,3.73,2.41,4.56c-2.06,3.57-3.62,7.34-4.69,11.3
			c-2.34,4.15-6.48,5.55-10.38,6.81c0.74,2.29,3.56,2.2,5.65,2.51c1.32-0.19,3.46-1.29,4.29,0.23c-4.35,7.1-2.23,17.01-9.7,22.6
			l2.31,0.28c6.66-0.24,7.76-7.78,10.59-12.08l0.33,0.32c-1.51,8.9,0.83,20.16-7.66,25.52c2.1,0.94,4.19,0.89,6.25-0.14
			c3.91-3.19,5.39-7.88,5.98-12.64c0.81-3.32,0.61-7.01,2.41-9.93c1.34,1.42,0.25,3.93,1.11,5.57c-0.73,9,3.03,20.03-3.68,26.41
			c0.55,0.21,0.91,0.91,1.65,0.63c7.31-2.09,6.07-10.93,6.86-17.27c0.49-2.97-0.03-6.34,1.45-8.93c0.24,1.32,0.99,2.41,0.74,3.94
			l0.98-0.02c0.8-3.75,2.09-7.3,2.38-11.24l0.65-0.68l1,0.97c0.63-0.57,1.51-1.61,1.59-2.67c0.34,1.26,0.79,2.49,0.74,3.93
			c-1.6,2.37,0.8,6.29-1.79,8.27c-1.2,2.9-0.39,6.57,0.86,9.2c0.67,3.61-0.41,7.64-3.39,9.95c-0.96-0.76-1.65-1.64-1.38-2.93
			c-0.31-1.25-1.09-2-2.36-2.25c-0.21,1.34-0.67,2.58-1.57,3.65c-0.56,2.04,1.48,3.19,2.73,4.55c-1.33,3.97-8.67-1.04-7.14,4.77
			l1.65-0.04c3.04,2.02,4.88-2.44,7.84-2.48c1.63,2.31-2.68,3.94-2.16,6.64c1.73-0.32,3.46-0.64,4.56-2.41
			c-0.78-3.54,3.31-5.18,5.44-6.71c2.67-0.14,1.2-3.03,1.55-4.65c-1.24,0.23-2.02,1.49-3.26,1.72c-0.56-0.33-0.56-0.92-1.01-1.3
			c0.95-2.55,1.65-5.5,3.79-7.32c3.07,5.03,2.73,11.58,3.36,17.7c-0.35,2.2-1.99-0.02-3.28,0.73c-1.56,0.64-1.01,2.66-1.55,3.98
			c-1.26-0.73-2.67-1.11-4.3-0.89c-0.66,0.29-1.73,1-1.27,2.01c2.82,1.03,2.57,4.3,5.06,5.48c-0.2,0.42-0.62,0.33-0.99,0.35
			c-1.3,0.52-3.24,1.94-2.88,3.68c2.1-0.01,4.03,1.46,5.94,0.86c0.74,0.01,1.57-0.2,1.99,0.61c0.33,1.82,1.22,3.69,3.06,4.54
			c2.04-0.66,4.67-1.96,5.18-4.07c-0.5-3.88,3.33,0.53,5.23-1.43c1.19-0.27,2.68,1.54,3.3-0.07c0.21-2.66-2.98-3.25-3.74-5.18
			c1.67-0.79,2.57-3.31,4.54-3.39c0.18-0.95-0.34-1.59-0.71-2.29c-1.84-1.28-4.31-0.24-6.26,0.14c-1-0.86,0.47-1.57-0.06-2.63
			c-0.37-1.39-1.86-1.41-3-1.58c-2.16-3.49-0.39-7.89-0.59-11.84c1.04-2.43,0.08-6.23,3.12-7.31c3.99,0.77,3.13,5.4,3.82,8.48
			c-1.51,1.81-2.78-1.13-4.62-0.55l0.38,2.28c0.31,0.9,1.26,1.61,2.33,1.27c2.96,1.16,5.76,2.96,6.07,6.45
			c1.01,1.3,2.75,0.69,3.68,2.21c0.59-0.47,0.19-1.31,0.28-1.97c-0.73-1.71-3.89-2.76-2.74-4.88c2.45,1.89,5.63,2.96,8.61,2.44
			c-1.05-4.01-5.6-2.67-7.68-4.77c1.08-1.18,3.04-0.4,3.91-2.07c0.61-2.18-1.23-3.27-1.11-5.24c-3.8-0.29-1.82,4.24-4.15,5.36
			c-1.14-0.06-1.11-1.02-2.01-1.61c-3.03-6.87,2.65-12.63-1.41-19.06c1.13-3.12-1.21-7.2,0.42-10.54c1.09,0.49,1.14,2.04,2.04,2.92
			c0.47,0.12,0.64-0.46,0.97-0.68l0.67,0.64c0.25,3.82,1,7.42,2.22,10.81c1.09-1.36,1.01-3.18,1.87-4.65l0.67,0.65l1.42,19.71
			l1.41,3.92c1.03,2.28,3.46,3.95,6.01,3.82l-0.01-0.67c-2.78-2.07-2.44-5.5-3.15-8.48c0.28-7.36,0.06-14.91,0.83-22.08l0.64-0.67
			c2.42,7.72,1.92,17.03,8.73,22.52c1.65,0.08,3.31,1.14,4.94,0.22l-0.01-0.65c-6.35-4.12-6.83-12.56-7.04-20.25l0.65-0.67
			c0.24,0.59,0.87,0.19,1.32,0.3c1.48,1.58,2.62,3.31,3.4,5.19c1.5,2.12,3.69,3.95,6.35,3.8c0.97-0.56,2.67-0.16,2.92-1.7
			C441.2,415.1,445.05,402.73,440.59,394.9"/>
		<path class="st0" d="M338.65,430.59l0.03,1.32c-1.13,0.09-2.3-0.72-3.29,0.07c-1.77,2.14-3.04,4.48-3.8,7
			c2.29,1.2,3.78-1.32,5.89-1.45l1.92-2.68c1.28,1.02,1.61,3.04,2.41,4.56c-4.16-0.05-8.04,1.23-10.43,4.52
			c-1.89,0.5-1.58-1.73-2.36-2.58c-0.46-3.06,2.54-5.18,1.8-7.94c-1.55-0.47-2.52,1-3.26,1.71c-1.44-0.7-1.42-2.61-1.41-4.25
			c3.51,1.36,6.12-1.23,9.18-1.84C336.4,425.83,338.48,429.1,338.65,430.59"/>
		<path class="st0" d="M473.23,443.39c-1.2,1.17-3.53,0.41-4.22,2.06c-0.56-0.09-1.3,0.31-1.66-0.29c2.39-2.32-4-5.24,0.54-5.28
			c1.51,0.34,1.95-1.74,3.6-1.06C471.77,440.48,472.29,442.03,473.23,443.39"/>
		<path class="st0" d="M346.23,445.9c1.43,1.39,1.68,3.7,1.11,5.57c-1.7,3.29-6.23,3.48-7.08,7.4c-1.66,0.01-2.15-2.23-2.71-3.57
			c3.03-0.72,5.92-2.44,7.79-5.11c0.24-1.64-1.1-2.89-2.39-3.56c-3.1-0.02-5.93,1.24-7.48,4.11l0.01,0.67
			c-1.75-0.34-2.03-2.5-2.72-3.9c4.36,0.02,7.2-4.38,11.79-2.9L346.23,445.9z"/>
		<path class="st0" d="M471.13,452c-0.26,1.5-1.27,3.29-2.89,3.68c-1.25-2.96-4.44-5.37-7.69-5.42c-0.84,0.93-1.91,1.76-1.9,3
			c1.25,3.08,4.58,5.25,7.7,5.76c-0.64,1.2-1.14,2.73-2.56,3.35c-0.37-0.41-1.4-0.41-1.02-1.29c-2.64-2.96-8.76-5.39-6.48-10.4
			c1.21-1.6,2.73-2.51,4.55-2.73C464.91,447.61,467.16,452.01,471.13,452"/>
		<path class="st0" d="M352.78,459.25c-0.8,2.13,0.06,3.94-0.2,5.93c-1.81,0.22-3.15-1.79-4.95-0.54l-1.32-0.63
			c3.02-1.72-2.43-7.68,3.18-5.01C350.8,459.57,351.85,457.68,352.78,459.25"/>
		<path class="st0" d="M449.9,459.71c-1.19,3.28,2.05,5.42,3.8,7.81c1.24,1.17,1.91-0.8,2.94-1.05c1.8-0.49-0.24-4.03,2.25-2.68
			c0.8,0.71,1.61,1.43,1.37,2.6c-3.49,2.77-6.23,5.27-9.7,8.12c-1.75,0.83-1.79-1.25-2.68-1.92c1.36-0.47,3.46-1.21,4.22-3.05
			c-2.35-2.14-3.33-6.35-7.06-6.43c0.58-1.51,2.58-2.46,3.87-3.7L449.9,459.71z"/>
		<path class="st0" d="M369.14,469.75c-0.93,1.04-2.29,2.51-3.88,2.72c0.24-1.76-1.25-2.74-2.39-3.89c-0.97-0.39-1.44,0.02-2.3,0.38
			c-1.6,3.85,6.26,6.74,1.21,10.18c-2.09,0.2-4.05,0.12-5.31-1.86c0.94-2.45-5.57-4.98-0.46-5.91c1.79,0.44,1.81,6.4,4.36,3.52
			c-1.17-2.24-3.33-4.46-2.47-7.19c0.58-1.27,1.85-2.27,3.23-2.38C364.86,464.83,365.93,469.7,369.14,469.75"/>
		<path class="st0" d="M440.52,467.17c-0.42,3.31,1.97,6.22,4.15,8.79c0.63,0.63,2.67-0.14,2.01,1.61
			c-1.52,0.69-2.74,2.08-4.56,2.08c-1.02-3.71-2.44-7.81-6.14-9.74C436.58,468.25,438.8,467.61,440.52,467.17"/>
		<path class="st0" d="M375.8,472.89c0.4,0.91-0.58,0.71-0.96,1.02c-2.04,2.91-5.09,5.82-3.74,9.63c-1.99,0.51-3.16-1.08-4.65-1.87
			c-0.29-1,1.14-0.77,1.62-1.36c1.38-2.95,5.09-5.82,3.08-9.28C373.07,470.7,374.07,472.73,375.8,472.89"/>
		<path class="st0" d="M432.72,471.95c-0.11,3.59,1.65,7.79,4.83,9.76c0.12,1.92-2.08,1.26-2.91,2.37c-2.71-0.12-4.86-1.64-7.3-2.47
			c-1.45,1.04,0.05,2.42,0.08,3.63c0.4,0.43,0.98,0.39,1.34,0.95c-1.38,0.82-2.75,1.64-4.58,1.42c0.39-4.14-1.41-8.43-3.88-11.44
			c1.35-0.57,3.06-1.66,4.9-1.76c0.2,1.53-0.8,3.87,1.75,4.57c1.64,0.82,3.42,2.38,5.3,1.53c-0.65-2.54-1.3-5.38-3.77-6.83
			C429.4,472.62,430.99,470.85,432.72,471.95"/>
		<path class="st0" d="M388.41,477.21c0.18,1.17-0.55,2.27-1.59,2.67c-1.77-0.73-3.13-2.51-5.32-2.19
			c-0.32,0.69-1.05,1.61-0.28,2.31c1.66,2.07,4.9,2.27,5.38,5.15c0.08,1.77-1.06,2.77-2.56,3.36c-3.81,0.53-5.97-3.19-9.62-3.09
			c-0.16-0.94,0.92-1.68,1.61-2c2.35-0.39,5.22,5.31,6.27,0.84c-1.6-2.7-7.35-4.12-4.78-8.12c1.45-2.12,4.28-1.23,6.23-0.81
			C385.45,475.62,386.31,478,388.41,477.21"/>
		<path class="st0" d="M396,478.37c0.19,1.18-1.61,1.6-0.92,2.98c1.33,1.6,2.63,3.81,4.7,4.51c1.18-1.49,0.36-3.74,0.54-5.62
			c-0.55-0.55-1.32-1.02-1.04-1.94c1.85-0.32,3.3,0.37,4.95,0.54c-2.85,2.56-1.21,7.26-1.07,10.56l1,0.96
			c-4.88,3.18-6.12-3.64-9.33-5.06c-1.19,0.93-1.11,2.77-0.57,3.97l0.33,0.32c-1.64,0.68-3.55-0.02-5.27-0.21
			c-0.02-0.71,1.42-1.42,1.6-2.34c0.04-3.19,1.07-6.39,0.11-9.55C392.89,477.28,394.54,477.57,396,478.37"/>
		<path class="st0" d="M417.37,477.22c-0.73,4.07,0.02,8.3,2.23,11.48l-0.97,0.68l-10.18,1.22c-1.22-0.45-0.48-1.75-0.73-2.62
			c0.84-0.33,2.13,0.25,2.99,0.92c1.56-0.74,3.83,0.12,4.9-1.76c0.05-1.2-0.01-2.65-1.39-2.93c-1.1,0.79-1.14,2.03-2.59,2.04
			c-0.84-1.34-0.93-3.42-0.44-4.93l0.98-0.02c0,0.58,0.67,0.87,1.02,1.3c0.61,0.19,0.93-0.32,1.29-0.7
			c0.05-1.05-0.03-2.03-1.04-2.61c-1.85,0.81-4.85-0.33-5.54,2.43l-0.67,0.01l-0.07-3.29C410.7,478.29,413.61,476.76,417.37,477.22"
			/>
		<path class="st0" d="M402.45,349.38c-0.73,0-1.33-0.59-1.34-1.33c-0.01-0.74,0.59-1.35,1.33-1.35c0.23,0,0.47,0,0.7,0
			c0.12,0,0.25,0,0.38,0c0.74,0,1.34,0.61,1.33,1.35c0,0.74-0.6,1.33-1.34,1.33h-0.01c-0.12,0-0.25,0-0.37,0c-0.22,0-0.44,0-0.66,0
			H402.45z M408.19,349.58c-0.04,0-0.07,0-0.11,0c-0.22-0.02-0.44-0.03-0.65-0.05c-0.74-0.05-1.3-0.69-1.24-1.43
			c0.05-0.74,0.69-1.3,1.43-1.24c0.23,0.02,0.45,0.03,0.68,0.05c0.74,0.06,1.29,0.7,1.23,1.44
			C409.47,349.05,408.88,349.58,408.19,349.58 M397.77,349.6c-0.69,0-1.27-0.53-1.33-1.23c-0.06-0.74,0.49-1.38,1.22-1.45
			c0.23-0.02,0.45-0.04,0.68-0.05c0.74-0.05,1.38,0.5,1.43,1.24c0.05,0.74-0.5,1.38-1.24,1.43c-0.22,0.02-0.44,0.03-0.65,0.05
			C397.85,349.6,397.81,349.6,397.77,349.6 M412.84,350.12c-0.07,0-0.14-0.01-0.21-0.02c-0.22-0.03-0.43-0.07-0.65-0.1
			c-0.73-0.1-1.24-0.78-1.14-1.52c0.1-0.73,0.78-1.24,1.52-1.14c0.23,0.03,0.45,0.07,0.68,0.1c0.73,0.11,1.23,0.8,1.12,1.53
			C414.06,349.65,413.49,350.12,412.84,350.12 M393.12,350.17c-0.65,0-1.22-0.47-1.32-1.13c-0.12-0.73,0.38-1.42,1.11-1.53
			c0.22-0.04,0.45-0.07,0.68-0.1c0.73-0.11,1.41,0.4,1.52,1.13c0.11,0.73-0.4,1.41-1.13,1.52c-0.22,0.03-0.43,0.07-0.65,0.1
			C393.26,350.16,393.19,350.17,393.12,350.17 M417.44,351c-0.1,0-0.2-0.01-0.3-0.03c-0.21-0.05-0.43-0.1-0.64-0.14
			c-0.72-0.16-1.18-0.87-1.02-1.6c0.16-0.72,0.87-1.18,1.6-1.02c0.22,0.05,0.45,0.1,0.67,0.15c0.72,0.17,1.17,0.89,1,1.61
			C418.61,350.59,418.05,351,417.44,351 M388.52,351.07c-0.61,0-1.16-0.42-1.3-1.03c-0.17-0.72,0.28-1.44,1-1.61
			c0.22-0.05,0.44-0.1,0.67-0.15c0.72-0.16,1.44,0.29,1.6,1.01c0.16,0.72-0.29,1.44-1.01,1.6c-0.21,0.05-0.43,0.1-0.64,0.15
			C388.73,351.06,388.62,351.07,388.52,351.07 M421.97,352.23c-0.13,0-0.27-0.02-0.4-0.06c-0.21-0.06-0.42-0.13-0.63-0.19
			c-0.71-0.21-1.11-0.96-0.9-1.67c0.21-0.71,0.96-1.11,1.67-0.9c0.22,0.07,0.44,0.13,0.65,0.2c0.71,0.22,1.1,0.97,0.88,1.68
			C423.07,351.86,422.54,352.23,421.97,352.23 M384,352.31c-0.57,0-1.1-0.37-1.28-0.94c-0.22-0.71,0.17-1.46,0.87-1.68
			c0.22-0.07,0.44-0.14,0.66-0.2c0.71-0.22,1.46,0.18,1.67,0.89c0.22,0.71-0.18,1.46-0.89,1.67c-0.21,0.06-0.42,0.13-0.63,0.19
			C384.27,352.29,384.14,352.31,384,352.31 M426.39,353.78c-0.16,0-0.33-0.03-0.49-0.09c-0.2-0.08-0.41-0.16-0.61-0.24
			c-0.69-0.26-1.04-1.04-0.77-1.73c0.26-0.69,1.04-1.04,1.73-0.77c0.21,0.08,0.43,0.16,0.64,0.25c0.69,0.27,1.03,1.05,0.76,1.74
			C427.43,353.46,426.92,353.78,426.39,353.78 M379.58,353.89c-0.53,0-1.03-0.32-1.24-0.84c-0.27-0.69,0.06-1.47,0.75-1.74
			c0.21-0.09,0.43-0.17,0.64-0.25c0.69-0.27,1.47,0.08,1.73,0.77c0.27,0.69-0.08,1.47-0.77,1.73c-0.2,0.08-0.41,0.16-0.61,0.24
			C379.92,353.86,379.75,353.89,379.58,353.89 M430.67,355.66c-0.2,0-0.39-0.04-0.58-0.13c-0.2-0.09-0.39-0.19-0.59-0.28
			c-0.67-0.31-0.96-1.11-0.64-1.78c0.31-0.67,1.11-0.96,1.78-0.64c0.21,0.1,0.41,0.19,0.62,0.29c0.67,0.32,0.95,1.12,0.62,1.79
			C431.65,355.38,431.17,355.66,430.67,355.66 M375.29,355.79c-0.5,0-0.97-0.28-1.2-0.75c-0.32-0.66-0.05-1.47,0.62-1.79
			c0.21-0.1,0.41-0.2,0.62-0.3c0.67-0.32,1.47-0.03,1.78,0.63c0.32,0.67,0.03,1.47-0.63,1.79c-0.2,0.09-0.4,0.19-0.59,0.29
			C375.69,355.75,375.49,355.79,375.29,355.79 M434.81,357.85c-0.23,0-0.46-0.06-0.67-0.18c-0.19-0.11-0.38-0.22-0.57-0.32
			c-0.64-0.36-0.87-1.18-0.51-1.82c0.36-0.64,1.18-0.87,1.82-0.51c0.2,0.11,0.4,0.22,0.59,0.34c0.64,0.37,0.86,1.19,0.49,1.83
			C435.72,357.61,435.27,357.85,434.81,357.85 M371.16,358.01c-0.46,0-0.91-0.24-1.16-0.66c-0.37-0.64-0.16-1.46,0.48-1.83
			c0.2-0.12,0.39-0.23,0.59-0.34c0.64-0.37,1.46-0.14,1.83,0.5c0.37,0.64,0.14,1.46-0.5,1.83c-0.19,0.11-0.38,0.22-0.57,0.33
			C371.62,357.95,371.39,358.01,371.16,358.01 M438.77,360.34c-0.26,0-0.52-0.08-0.75-0.23c-0.18-0.12-0.36-0.24-0.54-0.36
			c-0.62-0.41-0.78-1.24-0.37-1.86c0.41-0.62,1.24-0.78,1.86-0.37c0.19,0.13,0.38,0.25,0.57,0.38c0.61,0.42,0.77,1.25,0.35,1.86
			C439.62,360.13,439.2,360.34,438.77,360.34 M367.2,360.52c-0.43,0-0.84-0.2-1.1-0.58c-0.42-0.61-0.27-1.44,0.34-1.86
			c0.19-0.13,0.38-0.26,0.57-0.38c0.61-0.41,1.45-0.25,1.86,0.36s0.25,1.45-0.36,1.86c-0.18,0.12-0.36,0.25-0.54,0.37
			C367.72,360.45,367.46,360.52,367.2,360.52 M442.55,363.11c-0.29,0-0.59-0.09-0.83-0.29c-0.17-0.14-0.34-0.27-0.51-0.4
			c-0.58-0.45-0.69-1.3-0.24-1.88c0.45-0.58,1.3-0.69,1.88-0.24c0.18,0.14,0.36,0.28,0.54,0.42c0.58,0.46,0.68,1.3,0.22,1.88
			C443.33,362.94,442.94,363.11,442.55,363.11 M363.43,363.32c-0.39,0-0.78-0.17-1.05-0.5c-0.46-0.58-0.37-1.42,0.21-1.88
			c0.18-0.14,0.36-0.28,0.54-0.43c0.58-0.46,1.42-0.36,1.88,0.23c0.46,0.58,0.36,1.42-0.23,1.88c-0.17,0.14-0.34,0.27-0.51,0.41
			C364.02,363.22,363.73,363.32,363.43,363.32 M446.11,366.16c-0.32,0-0.65-0.12-0.91-0.35c-0.16-0.15-0.32-0.3-0.48-0.44
			c-0.55-0.5-0.59-1.34-0.1-1.89c0.5-0.55,1.34-0.59,1.89-0.1c0.17,0.15,0.34,0.31,0.5,0.46c0.54,0.5,0.58,1.35,0.08,1.89
			C446.83,366.01,446.47,366.16,446.11,366.16 M359.89,366.39c-0.36,0-0.72-0.14-0.98-0.43c-0.5-0.54-0.47-1.39,0.07-1.89
			c0.17-0.16,0.33-0.31,0.5-0.46c0.55-0.5,1.39-0.46,1.89,0.09c0.5,0.55,0.46,1.39-0.09,1.89c-0.16,0.15-0.32,0.3-0.48,0.44
			C360.54,366.27,360.22,366.39,359.89,366.39 M449.43,369.45c-0.36,0-0.71-0.14-0.98-0.42c-0.15-0.16-0.3-0.32-0.45-0.48
			c-0.51-0.53-0.49-1.38,0.04-1.89c0.53-0.51,1.38-0.49,1.89,0.04c0.16,0.16,0.31,0.33,0.47,0.5c0.51,0.54,0.48,1.39-0.06,1.89
			C450.09,369.33,449.76,369.45,449.43,369.45 M356.58,369.7c-0.33,0-0.65-0.12-0.91-0.36c-0.54-0.5-0.57-1.35-0.07-1.89
			c0.15-0.17,0.31-0.33,0.47-0.5c0.51-0.54,1.36-0.56,1.89-0.05c0.54,0.51,0.56,1.36,0.05,1.89c-0.15,0.16-0.3,0.32-0.45,0.48
			C357.3,369.56,356.94,369.7,356.58,369.7 M452.51,372.99c-0.39,0-0.78-0.17-1.04-0.5c-0.14-0.17-0.28-0.34-0.42-0.51
			c-0.47-0.57-0.39-1.41,0.18-1.89c0.57-0.47,1.41-0.39,1.89,0.18c0.14,0.18,0.29,0.35,0.43,0.53c0.46,0.58,0.38,1.42-0.2,1.88
			C453.11,372.89,452.81,372.99,452.51,372.99 M353.52,373.25c-0.29,0-0.59-0.1-0.84-0.29c-0.58-0.46-0.67-1.3-0.21-1.88
			c0.14-0.18,0.28-0.35,0.43-0.53c0.47-0.57,1.31-0.66,1.88-0.19c0.57,0.47,0.66,1.31,0.19,1.88c-0.14,0.17-0.28,0.34-0.41,0.51
			C354.3,373.08,353.91,373.25,353.52,373.25 M455.32,376.74c-0.42,0-0.84-0.2-1.1-0.58c-0.12-0.18-0.25-0.36-0.38-0.54
			c-0.43-0.6-0.28-1.44,0.32-1.87c0.6-0.43,1.44-0.28,1.87,0.32c0.13,0.19,0.26,0.37,0.39,0.56c0.42,0.61,0.27,1.44-0.34,1.86
			C455.85,376.67,455.59,376.74,455.32,376.74 M350.73,377.02c-0.26,0-0.52-0.08-0.76-0.23c-0.61-0.42-0.77-1.25-0.35-1.86
			c0.13-0.19,0.26-0.37,0.39-0.56c0.42-0.61,1.26-0.75,1.87-0.33c0.61,0.42,0.75,1.26,0.33,1.87c-0.13,0.18-0.25,0.36-0.37,0.54
			C351.58,376.81,351.16,377.02,350.73,377.02 M457.85,380.69c-0.46,0-0.91-0.24-1.16-0.66c-0.11-0.19-0.22-0.38-0.34-0.56
			c-0.38-0.63-0.18-1.46,0.46-1.84c0.63-0.38,1.46-0.18,1.84,0.46c0.12,0.2,0.23,0.39,0.35,0.59c0.38,0.64,0.16,1.46-0.47,1.83
			C458.32,380.63,458.08,380.69,457.85,380.69 M348.23,380.97c-0.23,0-0.46-0.06-0.67-0.18c-0.64-0.37-0.86-1.19-0.48-1.83
			c0.11-0.2,0.23-0.39,0.35-0.59c0.38-0.64,1.2-0.84,1.84-0.47c0.64,0.38,0.84,1.2,0.46,1.84c-0.11,0.19-0.22,0.38-0.33,0.56
			C349.14,380.74,348.69,380.97,348.23,380.97 M460.08,384.82c-0.49,0-0.97-0.27-1.2-0.75c-0.1-0.2-0.19-0.39-0.29-0.59
			c-0.33-0.66-0.07-1.47,0.59-1.8c0.66-0.33,1.47-0.07,1.8,0.59c0.1,0.2,0.21,0.41,0.31,0.61c0.33,0.66,0.05,1.47-0.61,1.79
			C460.48,384.78,460.28,384.82,460.08,384.82 M346.03,385.1c-0.2,0-0.4-0.04-0.59-0.14c-0.67-0.32-0.94-1.13-0.62-1.79
			c0.1-0.2,0.2-0.41,0.3-0.61c0.33-0.66,1.14-0.93,1.8-0.6c0.66,0.33,0.93,1.14,0.6,1.8c-0.1,0.19-0.19,0.39-0.29,0.59
			C347,384.83,346.53,385.1,346.03,385.1 M462,389.11c-0.53,0-1.03-0.32-1.24-0.84c-0.08-0.2-0.16-0.41-0.25-0.61
			c-0.28-0.68,0.04-1.47,0.72-1.75c0.68-0.28,1.47,0.04,1.75,0.72c0.09,0.21,0.17,0.42,0.26,0.64c0.28,0.69-0.05,1.47-0.74,1.74
			C462.33,389.08,462.16,389.11,462,389.11 M344.14,389.39c-0.16,0-0.33-0.03-0.49-0.1c-0.69-0.27-1.02-1.05-0.75-1.74
			c0.08-0.21,0.17-0.42,0.26-0.63c0.28-0.68,1.06-1.01,1.75-0.73s1.01,1.06,0.73,1.75c-0.08,0.2-0.16,0.4-0.25,0.61
			C345.17,389.07,344.67,389.39,344.14,389.39 M463.59,393.52c-0.57,0-1.09-0.36-1.28-0.93c-0.07-0.21-0.13-0.42-0.2-0.63
			c-0.23-0.7,0.15-1.46,0.85-1.69c0.7-0.23,1.46,0.15,1.69,0.85c0.07,0.22,0.14,0.44,0.21,0.65c0.22,0.7-0.16,1.46-0.87,1.68
			C463.86,393.5,463.72,393.52,463.59,393.52 M342.57,393.8c-0.13,0-0.27-0.02-0.4-0.06c-0.71-0.22-1.1-0.97-0.88-1.68
			c0.07-0.22,0.14-0.43,0.21-0.65c0.23-0.7,0.98-1.09,1.69-0.86c0.7,0.23,1.09,0.99,0.86,1.69c-0.07,0.21-0.13,0.42-0.2,0.62
			C343.67,393.43,343.14,393.8,342.57,393.8 M464.85,398.04c-0.61,0-1.15-0.41-1.3-1.03c-0.05-0.21-0.1-0.42-0.16-0.64
			c-0.18-0.72,0.26-1.44,0.97-1.62c0.72-0.18,1.44,0.26,1.62,0.97c0.05,0.22,0.11,0.44,0.16,0.66c0.17,0.72-0.27,1.44-0.99,1.61
			C465.05,398.03,464.95,398.04,464.85,398.04 M341.33,398.32c-0.1,0-0.2-0.01-0.31-0.04c-0.72-0.17-1.17-0.89-1-1.61
			c0.05-0.22,0.11-0.44,0.16-0.67c0.18-0.72,0.9-1.16,1.62-0.98c0.72,0.18,1.16,0.9,0.98,1.62c-0.05,0.21-0.1,0.42-0.15,0.64
			C342.49,397.9,341.94,398.32,341.33,398.32 M465.76,402.63c-0.65,0-1.21-0.47-1.32-1.13c-0.03-0.22-0.07-0.43-0.11-0.65
			c-0.13-0.73,0.36-1.42,1.09-1.55c0.73-0.13,1.42,0.36,1.55,1.09c0.04,0.22,0.08,0.45,0.11,0.67c0.12,0.73-0.38,1.42-1.11,1.54
			C465.91,402.63,465.84,402.63,465.76,402.63 M340.44,402.92c-0.07,0-0.14-0.01-0.21-0.02c-0.73-0.11-1.23-0.8-1.12-1.53
			c0.04-0.23,0.07-0.45,0.11-0.67c0.12-0.73,0.81-1.22,1.54-1.1c0.73,0.12,1.22,0.81,1.1,1.54c-0.04,0.22-0.07,0.43-0.1,0.65
			C341.65,402.45,341.08,402.92,340.44,402.92 M466.34,407.28c-0.69,0-1.27-0.53-1.33-1.22c-0.02-0.22-0.04-0.44-0.06-0.65
			c-0.07-0.74,0.47-1.39,1.2-1.46c0.74-0.07,1.39,0.47,1.46,1.2c0.02,0.23,0.04,0.45,0.06,0.68c0.06,0.74-0.48,1.39-1.22,1.45
			C466.42,407.28,466.38,407.28,466.34,407.28 M339.88,407.57c-0.04,0-0.07,0-0.11,0c-0.74-0.06-1.29-0.71-1.23-1.44
			c0.02-0.23,0.04-0.45,0.06-0.68c0.07-0.74,0.72-1.28,1.46-1.21c0.74,0.07,1.28,0.72,1.21,1.46c-0.02,0.22-0.04,0.44-0.06,0.65
			C341.16,407.04,340.57,407.57,339.88,407.57 M466.58,411.96c-0.73,0-1.33-0.59-1.34-1.32c0-0.22-0.01-0.44-0.01-0.66
			c-0.02-0.74,0.57-1.35,1.31-1.37c0.01,0,0.02,0,0.03,0c0.73,0,1.32,0.58,1.34,1.31c0.01,0.23,0.01,0.46,0.01,0.68
			c0.01,0.74-0.58,1.35-1.32,1.36H466.58z M339.67,412.25c0,0-0.01,0-0.01,0c-0.74-0.01-1.33-0.61-1.33-1.35
			c0-0.23,0.01-0.46,0.01-0.68c0.01-0.74,0.63-1.33,1.37-1.31c0.74,0.01,1.33,0.63,1.31,1.37c0,0.22-0.01,0.44-0.01,0.66
			C341,411.66,340.4,412.25,339.67,412.25 M466.47,416.65c-0.03,0-0.05,0-0.08,0c-0.74-0.04-1.3-0.68-1.26-1.42
			c0.01-0.22,0.02-0.44,0.04-0.65c0.04-0.74,0.66-1.31,1.4-1.27c0.74,0.04,1.31,0.66,1.27,1.4c-0.01,0.23-0.02,0.46-0.04,0.68
			C467.77,416.1,467.18,416.65,466.47,416.65 M339.79,416.93c-0.7,0-1.29-0.55-1.34-1.25c-0.01-0.23-0.03-0.45-0.04-0.68
			c-0.04-0.74,0.53-1.37,1.27-1.41c0.74-0.04,1.37,0.53,1.41,1.27c0.01,0.22,0.02,0.44,0.04,0.65c0.05,0.74-0.51,1.38-1.25,1.42
			C339.85,416.93,339.82,416.93,339.79,416.93 M466.02,421.31c-0.06,0-0.12,0-0.18-0.01c-0.73-0.1-1.25-0.77-1.15-1.5
			c0.03-0.22,0.06-0.43,0.08-0.65c0.09-0.73,0.76-1.26,1.49-1.17c0.73,0.09,1.26,0.76,1.17,1.49c-0.03,0.23-0.06,0.45-0.09,0.68
			C467.26,420.82,466.69,421.31,466.02,421.31 M340.26,421.6c-0.66,0-1.23-0.49-1.33-1.16c-0.03-0.23-0.06-0.45-0.09-0.68
			c-0.09-0.73,0.43-1.4,1.16-1.5c0.73-0.09,1.4,0.43,1.5,1.16c0.03,0.22,0.06,0.43,0.09,0.65c0.1,0.73-0.41,1.41-1.14,1.51
			C340.38,421.59,340.32,421.6,340.26,421.6 M465.23,425.93c-0.09,0-0.18-0.01-0.28-0.03c-0.72-0.15-1.19-0.86-1.04-1.59
			c0.04-0.21,0.09-0.43,0.13-0.64c0.14-0.73,0.85-1.2,1.58-1.05c0.73,0.14,1.2,0.85,1.05,1.58c-0.04,0.22-0.09,0.45-0.14,0.67
			C466.41,425.5,465.85,425.93,465.23,425.93 M341.07,426.21c-0.62,0-1.17-0.43-1.31-1.06c-0.05-0.22-0.09-0.45-0.14-0.67
			c-0.15-0.72,0.32-1.43,1.05-1.58c0.72-0.15,1.43,0.32,1.58,1.05c0.04,0.21,0.09,0.43,0.13,0.64c0.15,0.72-0.31,1.44-1.03,1.59
			C341.26,426.2,341.16,426.21,341.07,426.21 M464.1,430.48c-0.12,0-0.25-0.02-0.37-0.05c-0.71-0.21-1.12-0.95-0.92-1.66
			c0.06-0.21,0.12-0.42,0.18-0.63c0.2-0.71,0.94-1.13,1.65-0.93c0.71,0.2,1.13,0.94,0.93,1.65c-0.06,0.22-0.12,0.44-0.19,0.66
			C465.22,430.09,464.68,430.48,464.1,430.48 M342.22,430.75c-0.58,0-1.11-0.38-1.28-0.96c-0.06-0.22-0.13-0.44-0.19-0.66
			c-0.2-0.71,0.21-1.45,0.93-1.65c0.71-0.2,1.45,0.21,1.65,0.93c0.06,0.21,0.12,0.42,0.18,0.63c0.21,0.71-0.2,1.45-0.91,1.66
			C342.48,430.74,342.35,430.75,342.22,430.75 M462.63,434.93c-0.15,0-0.31-0.03-0.47-0.08c-0.69-0.26-1.05-1.03-0.79-1.72
			c0.08-0.2,0.15-0.41,0.23-0.62c0.25-0.7,1.02-1.06,1.71-0.81c0.7,0.25,1.06,1.02,0.81,1.71c-0.08,0.21-0.16,0.43-0.23,0.64
			C463.69,434.59,463.18,434.93,462.63,434.93 M343.71,435.2c-0.54,0-1.05-0.33-1.25-0.87c-0.08-0.21-0.16-0.43-0.24-0.64
			c-0.25-0.7,0.1-1.46,0.8-1.72c0.7-0.25,1.46,0.11,1.72,0.8c0.08,0.21,0.15,0.41,0.23,0.62c0.26,0.69-0.09,1.47-0.78,1.73
			C344.03,435.17,343.87,435.2,343.71,435.2 M460.84,439.25c-0.19,0-0.38-0.04-0.56-0.12c-0.67-0.31-0.97-1.1-0.66-1.78
			c0.09-0.2,0.18-0.4,0.27-0.59c0.3-0.68,1.09-0.98,1.77-0.68c0.68,0.3,0.98,1.09,0.68,1.77c-0.09,0.21-0.19,0.41-0.28,0.62
			C461.84,438.96,461.35,439.25,460.84,439.25 M345.53,439.53c-0.51,0-0.99-0.29-1.22-0.78c-0.1-0.21-0.19-0.42-0.29-0.62
			c-0.3-0.67,0-1.47,0.67-1.77c0.67-0.3,1.47,0,1.77,0.67c0.09,0.2,0.18,0.4,0.27,0.6c0.31,0.67,0.02,1.47-0.65,1.78
			C345.91,439.49,345.72,439.53,345.53,439.53 M458.74,443.43c-0.22,0-0.44-0.05-0.65-0.17c-0.65-0.36-0.88-1.17-0.53-1.82
			c0.11-0.19,0.21-0.38,0.31-0.57c0.35-0.65,1.16-0.9,1.81-0.55c0.65,0.35,0.9,1.16,0.55,1.81c-0.11,0.2-0.22,0.4-0.33,0.6
			C459.67,443.18,459.21,443.43,458.74,443.43 M347.66,443.71c-0.47,0-0.93-0.25-1.17-0.69c-0.11-0.2-0.22-0.4-0.33-0.6
			c-0.35-0.65-0.11-1.46,0.54-1.82c0.65-0.35,1.46-0.11,1.82,0.54c0.1,0.19,0.21,0.38,0.32,0.58c0.36,0.65,0.13,1.46-0.52,1.82
			C348.11,443.65,347.88,443.71,347.66,443.71 M456.33,447.44c-0.25,0-0.5-0.07-0.73-0.22c-0.62-0.4-0.79-1.23-0.39-1.85
			c0.12-0.18,0.24-0.37,0.35-0.55c0.4-0.62,1.23-0.81,1.85-0.41c0.62,0.4,0.81,1.23,0.41,1.85c-0.12,0.19-0.25,0.38-0.37,0.57
			C457.2,447.23,456.77,447.44,456.33,447.44 M350.1,447.72c-0.44,0-0.86-0.21-1.12-0.6c-0.13-0.19-0.25-0.38-0.37-0.57
			c-0.4-0.62-0.22-1.45,0.4-1.85c0.62-0.4,1.45-0.22,1.85,0.4c0.12,0.18,0.24,0.37,0.36,0.55c0.41,0.62,0.24,1.45-0.38,1.86
			C350.61,447.64,350.35,447.72,350.1,447.72 M453.63,451.27c-0.28,0-0.57-0.09-0.81-0.27c-0.59-0.45-0.7-1.29-0.25-1.88
			c0.13-0.17,0.26-0.35,0.39-0.52c0.44-0.59,1.28-0.72,1.87-0.27c0.59,0.44,0.72,1.28,0.27,1.87c-0.14,0.18-0.27,0.36-0.41,0.55
			C454.43,451.09,454.03,451.27,453.63,451.27 M352.82,451.53c-0.4,0-0.8-0.18-1.06-0.52c-0.14-0.18-0.28-0.36-0.41-0.54
			c-0.45-0.59-0.33-1.43,0.26-1.88c0.59-0.45,1.43-0.33,1.88,0.26c0.13,0.17,0.26,0.35,0.4,0.52c0.45,0.59,0.34,1.43-0.24,1.88
			C353.39,451.44,353.1,451.53,352.82,451.53 M450.66,454.89c-0.32,0-0.63-0.11-0.89-0.34c-0.55-0.49-0.61-1.34-0.11-1.89
			c0.14-0.16,0.29-0.33,0.43-0.49c0.48-0.56,1.33-0.62,1.89-0.13c0.56,0.48,0.62,1.33,0.13,1.89c-0.15,0.17-0.3,0.34-0.45,0.51
			C451.4,454.73,451.03,454.89,450.66,454.89 M355.81,455.14c-0.37,0-0.73-0.15-1-0.45c-0.15-0.17-0.3-0.34-0.45-0.51
			c-0.49-0.56-0.43-1.4,0.13-1.89c0.56-0.49,1.4-0.43,1.89,0.13c0.14,0.16,0.29,0.33,0.43,0.49c0.49,0.55,0.45,1.4-0.11,1.89
			C356.45,455.03,356.13,455.14,355.81,455.14 M447.43,458.28c-0.35,0-0.7-0.14-0.96-0.4c-0.52-0.53-0.51-1.38,0.02-1.89
			c0.16-0.15,0.31-0.31,0.47-0.46c0.52-0.52,1.37-0.52,1.89,0c0.52,0.52,0.52,1.37,0,1.89c-0.16,0.16-0.32,0.32-0.49,0.48
			C448.1,458.15,447.76,458.28,447.43,458.28 M359.06,458.51c-0.33,0-0.67-0.12-0.93-0.38c-0.16-0.16-0.33-0.32-0.49-0.48
			c-0.53-0.52-0.53-1.37-0.01-1.89c0.52-0.53,1.37-0.53,1.89-0.01c0.16,0.15,0.31,0.31,0.47,0.46c0.53,0.51,0.55,1.36,0.03,1.89
			C359.77,458.38,359.41,458.51,359.06,458.51 M443.95,461.43c-0.38,0-0.76-0.16-1.03-0.48c-0.48-0.57-0.4-1.41,0.16-1.89
			c0.17-0.14,0.33-0.28,0.5-0.43c0.56-0.48,1.41-0.42,1.89,0.14c0.48,0.56,0.42,1.41-0.14,1.89c-0.17,0.15-0.35,0.3-0.52,0.44
			C444.56,461.32,444.26,461.43,443.95,461.43 M362.55,461.64c-0.3,0-0.61-0.1-0.86-0.31c-0.17-0.15-0.35-0.29-0.52-0.44
			c-0.56-0.48-0.63-1.32-0.15-1.89c0.48-0.56,1.32-0.63,1.89-0.15c0.17,0.14,0.33,0.28,0.5,0.42c0.57,0.47,0.65,1.32,0.17,1.89
			C363.32,461.48,362.94,461.64,362.55,461.64 M440.26,464.31c-0.42,0-0.82-0.19-1.09-0.55c-0.43-0.6-0.3-1.44,0.3-1.87
			c0.18-0.13,0.35-0.26,0.53-0.39c0.6-0.44,1.43-0.31,1.87,0.28c0.44,0.59,0.31,1.43-0.28,1.87c-0.18,0.14-0.37,0.27-0.55,0.4
			C440.8,464.23,440.53,464.31,440.26,464.31 M366.26,464.5c-0.27,0-0.54-0.08-0.78-0.25c-0.19-0.13-0.37-0.27-0.55-0.4
			c-0.6-0.44-0.73-1.27-0.29-1.87s1.27-0.73,1.87-0.29c0.18,0.13,0.35,0.26,0.53,0.38c0.6,0.43,0.74,1.27,0.31,1.87
			C367.09,464.31,366.68,464.5,366.26,464.5 M436.36,466.92c-0.45,0-0.89-0.23-1.14-0.64c-0.39-0.63-0.19-1.46,0.44-1.84
			c0.19-0.11,0.37-0.23,0.56-0.35c0.63-0.39,1.45-0.21,1.85,0.42c0.39,0.63,0.21,1.45-0.42,1.85c-0.19,0.12-0.39,0.24-0.58,0.36
			C436.84,466.85,436.6,466.92,436.36,466.92 M370.17,467.09c-0.24,0-0.48-0.06-0.7-0.2c-0.19-0.12-0.39-0.24-0.58-0.36
			c-0.63-0.39-0.82-1.22-0.43-1.85c0.39-0.63,1.22-0.82,1.85-0.43c0.19,0.12,0.37,0.23,0.56,0.34c0.63,0.38,0.83,1.21,0.45,1.84
			C371.06,466.86,370.62,467.09,370.17,467.09 M432.27,469.23c-0.48,0-0.95-0.26-1.19-0.72c-0.34-0.66-0.08-1.47,0.57-1.81
			c0.19-0.1,0.39-0.2,0.58-0.31c0.65-0.35,1.46-0.1,1.81,0.55c0.35,0.65,0.1,1.46-0.55,1.81c-0.2,0.11-0.4,0.21-0.61,0.32
			C432.69,469.18,432.48,469.23,432.27,469.23 M374.25,469.37c-0.21,0-0.41-0.05-0.61-0.15c-0.2-0.1-0.4-0.21-0.6-0.31
			c-0.66-0.34-0.91-1.15-0.56-1.81c0.34-0.66,1.15-0.91,1.81-0.56c0.19,0.1,0.39,0.2,0.58,0.3c0.66,0.34,0.92,1.14,0.58,1.8
			C375.21,469.1,374.74,469.37,374.25,469.37 M428.03,471.23c-0.52,0-1.02-0.31-1.23-0.81c-0.29-0.68,0.03-1.47,0.71-1.76
			c0.2-0.09,0.4-0.17,0.6-0.26c0.68-0.3,1.47,0.01,1.77,0.69c0.3,0.68-0.01,1.47-0.69,1.77c-0.21,0.09-0.42,0.18-0.63,0.27
			C428.38,471.19,428.21,471.23,428.03,471.23 M378.49,471.35c-0.17,0-0.35-0.03-0.52-0.11c-0.21-0.09-0.42-0.18-0.63-0.27
			c-0.68-0.29-0.99-1.08-0.7-1.76c0.29-0.68,1.08-0.99,1.76-0.7c0.2,0.09,0.4,0.17,0.6,0.26c0.68,0.29,1,1.07,0.71,1.75
			C379.51,471.04,379.01,471.35,378.49,471.35 M423.65,472.91c-0.56,0-1.08-0.35-1.27-0.91c-0.24-0.7,0.13-1.46,0.83-1.7
			c0.21-0.07,0.42-0.14,0.62-0.22c0.7-0.25,1.46,0.12,1.71,0.82c0.25,0.7-0.12,1.46-0.82,1.71c-0.22,0.08-0.43,0.15-0.65,0.23
			C423.94,472.89,423.79,472.91,423.65,472.91 M382.87,473c-0.14,0-0.29-0.02-0.43-0.07c-0.22-0.07-0.43-0.15-0.65-0.22
			c-0.7-0.24-1.07-1.01-0.82-1.71c0.24-0.7,1.01-1.07,1.71-0.82c0.21,0.07,0.41,0.14,0.62,0.21c0.7,0.24,1.08,1,0.84,1.7
			C383.95,472.65,383.43,473,382.87,473 M419.16,474.26c-0.6,0-1.14-0.4-1.3-1c-0.19-0.72,0.24-1.45,0.96-1.63
			c0.21-0.06,0.42-0.11,0.63-0.17c0.71-0.19,1.45,0.23,1.64,0.94c0.19,0.71-0.23,1.45-0.94,1.64c-0.22,0.06-0.44,0.12-0.66,0.18
			C419.38,474.25,419.27,474.26,419.16,474.26 M387.36,474.33c-0.11,0-0.22-0.01-0.33-0.04c-0.22-0.06-0.44-0.11-0.66-0.17
			c-0.71-0.19-1.14-0.92-0.95-1.64c0.19-0.71,0.93-1.14,1.64-0.95c0.21,0.06,0.42,0.11,0.63,0.17c0.72,0.18,1.15,0.91,0.97,1.63
			C388.5,473.93,387.96,474.33,387.36,474.33 M414.58,475.27c-0.63,0-1.2-0.45-1.32-1.1c-0.13-0.73,0.35-1.43,1.08-1.56
			c0.21-0.04,0.43-0.08,0.64-0.12c0.73-0.14,1.43,0.33,1.57,1.06c0.14,0.73-0.33,1.43-1.06,1.57c-0.22,0.04-0.45,0.09-0.67,0.13
			C414.74,475.26,414.66,475.27,414.58,475.27 M391.94,475.32c-0.08,0-0.16-0.01-0.24-0.02c-0.22-0.04-0.45-0.08-0.67-0.12
			c-0.73-0.14-1.21-0.84-1.07-1.56c0.14-0.73,0.84-1.2,1.56-1.07c0.21,0.04,0.43,0.08,0.64,0.12c0.73,0.13,1.21,0.82,1.08,1.55
			C393.14,474.86,392.58,475.32,391.94,475.32 M409.94,475.94c-0.68,0-1.26-0.51-1.33-1.2c-0.08-0.74,0.45-1.4,1.19-1.47
			c0.22-0.02,0.43-0.05,0.65-0.07c0.73-0.09,1.4,0.44,1.49,1.17c0.09,0.73-0.44,1.4-1.17,1.49c-0.23,0.03-0.45,0.05-0.68,0.08
			C410.04,475.94,409.99,475.94,409.94,475.94 M396.58,475.97c-0.05,0-0.09,0-0.14-0.01c-0.23-0.02-0.45-0.05-0.68-0.07
			c-0.73-0.08-1.26-0.75-1.18-1.48c0.08-0.74,0.75-1.26,1.48-1.18c0.22,0.02,0.43,0.05,0.65,0.07c0.74,0.08,1.27,0.73,1.2,1.47
			C397.84,475.46,397.26,475.97,396.58,475.97 M405.27,476.27c-0.72,0-1.31-0.57-1.34-1.29c-0.02-0.74,0.55-1.36,1.29-1.38
			c0.22-0.01,0.44-0.02,0.66-0.03c0.74-0.03,1.36,0.54,1.4,1.28c0.03,0.74-0.54,1.36-1.28,1.4c-0.23,0.01-0.46,0.02-0.68,0.03
			C405.3,476.27,405.29,476.27,405.27,476.27 M401.26,476.28c-0.01,0-0.03,0-0.04,0c-0.23-0.01-0.45-0.01-0.68-0.02
			c-0.74-0.03-1.31-0.65-1.29-1.39c0.03-0.74,0.65-1.31,1.39-1.29c0.22,0.01,0.44,0.02,0.65,0.02c0.74,0.02,1.32,0.64,1.3,1.38
			C402.57,475.7,401.98,476.28,401.26,476.28"/>
		<path class="st0" d="M403.14,328.05c-45.65,0-82.79,37.14-82.79,82.79s37.14,82.79,82.79,82.79s82.79-37.14,82.79-82.79
			S448.79,328.05,403.14,328.05 M403.14,495.63c-11.45,0-22.55-2.24-33.01-6.66c-5.02-2.13-9.87-4.76-14.4-7.82
			c-4.49-3.03-8.71-6.52-12.55-10.35c-3.84-3.84-7.32-8.06-10.35-12.55c-3.06-4.53-5.69-9.38-7.82-14.4
			c-4.42-10.46-6.66-21.56-6.66-33.01c0-11.45,2.24-22.55,6.66-33.01c2.13-5.02,4.76-9.87,7.82-14.4
			c3.03-4.49,6.52-8.71,10.35-12.55c3.84-3.84,8.06-7.32,12.55-10.35c4.53-3.06,9.38-5.69,14.4-7.82
			c10.45-4.42,21.56-6.66,33.01-6.66s22.55,2.24,33.01,6.66c5.02,2.13,9.87,4.76,14.4,7.82c4.49,3.03,8.71,6.52,12.55,10.35
			c3.84,3.84,7.32,8.06,10.35,12.55c3.06,4.53,5.69,9.38,7.82,14.4c4.42,10.45,6.66,21.56,6.66,33.01c0,11.45-2.24,22.55-6.66,33.01
			c-2.13,5.02-4.76,9.87-7.82,14.4c-3.03,4.49-6.52,8.71-10.35,12.55c-3.84,3.84-8.06,7.32-12.55,10.35
			c-4.53,3.06-9.38,5.69-14.4,7.82C425.69,493.39,414.59,495.63,403.14,495.63"/>
	</g>
</g>
</svg>
